<svg id="ボタン枠" xmlns="http://www.w3.org/2000/svg" width="495" height="90" viewBox="0 0 495 90">
  <path id="パス_6" data-name="パス 6" d="M485.446,11.894a1.9,1.9,0,0,0-1.62-.749h-16.04V1.222c0-.668-.775-1.222-1.761-1.222H28.886c-.963,0-1.761.554-1.761,1.222v9.922H11.108a1.912,1.912,0,0,0-1.644.749A63.493,63.493,0,0,0,0,44.789a63.493,63.493,0,0,0,9.464,32.9,1.922,1.922,0,0,0,1.644.766H27.124v9.922c0,.668.8,1.222,1.761,1.222H466.024c.986,0,1.761-.554,1.761-1.222V78.449h16.04a1.907,1.907,0,0,0,1.62-.766c12.517-20.9,12.517-44.886,0-65.79Z" transform="translate(0.166 0.406)" fill="none"/>
  <path id="パス_1" data-name="パス 1" d="M485.446,11.894a1.9,1.9,0,0,0-1.62-.749h-16.04V1.222c0-.668-.775-1.222-1.761-1.222H28.886c-.963,0-1.761.554-1.761,1.222v9.922H11.108a1.912,1.912,0,0,0-1.644.749A63.493,63.493,0,0,0,0,44.789a63.493,63.493,0,0,0,9.464,32.9,1.922,1.922,0,0,0,1.644.766H27.124v9.922c0,.668.8,1.222,1.761,1.222H466.024c.986,0,1.761-.554,1.761-1.222V78.449h16.04a1.907,1.907,0,0,0,1.62-.766c12.517-20.9,12.517-44.886,0-65.79Zm-2.818,64.112h-16.6c-.963,0-1.761.538-1.761,1.222V87.15H30.647V77.227c0-.684-.775-1.222-1.761-1.222h-16.6a61.246,61.246,0,0,1-8.76-31.217,61.189,61.189,0,0,1,8.76-31.2h16.6c.986,0,1.761-.554,1.761-1.222V2.444H464.263v9.922c0,.668.8,1.222,1.761,1.222h16.6c11.578,19.877,11.578,42.524,0,62.417Z" fill="#696969"/>
  <path id="パス_2" data-name="パス 2" d="M468.334,14.8a1.9,1.9,0,0,0-1.644-.758H451.843V4.917c0-.681-.8-1.237-1.762-1.237H30.966C30,3.68,29.2,4.237,29.2,4.917v9.125H14.334a1.883,1.883,0,0,0-1.621.758,50.332,50.332,0,0,0-7.423,26,50.373,50.373,0,0,0,7.423,26,1.883,1.883,0,0,0,1.621.758H29.2v9.125c0,.7.8,1.237,1.762,1.237H450.081c.963,0,1.762-.541,1.762-1.237V67.558H466.69a1.9,1.9,0,0,0,1.644-.758,50.25,50.25,0,0,0,7.423-26,50.291,50.291,0,0,0-7.423-26Zm-2.819,50.267H450.081c-.987,0-1.762.557-1.762,1.237V75.43H32.728V66.3c0-.681-.775-1.237-1.762-1.237H15.532A48.182,48.182,0,0,1,8.814,40.8a48.182,48.182,0,0,1,6.719-24.267H30.966c.987,0,1.762-.541,1.762-1.237V6.17H448.319V15.3c0,.7.775,1.237,1.762,1.237h15.434A48.182,48.182,0,0,1,472.234,40.8a48.182,48.182,0,0,1-6.719,24.267Z" transform="translate(7.059 4.403)" fill="#696969"/>
</svg>
