<svg xmlns="http://www.w3.org/2000/svg" width="29" height="32" viewBox="0 0 29 32">
  <g id="グループ_524" data-name="グループ 524" transform="translate(-446 -3217)">
    <path id="パス_1445" data-name="パス 1445" d="M7.5,5h21a4,4,0,0,1,4,4V30a4,4,0,0,1-4,4H7.5a4,4,0,0,1-4-4V9A4,4,0,0,1,7.5,5Zm21,27a2,2,0,0,0,2-2V9a2,2,0,0,0-2-2H7.5a2,2,0,0,0-2,2V30a2,2,0,0,0,2,2Z" transform="translate(442.5 3215)" fill="#444"/>
    <path id="パス_1446" data-name="パス 1446" d="M24,10a1,1,0,0,1-1-1V3a1,1,0,0,1,2,0V9A1,1,0,0,1,24,10Z" transform="translate(442.5 3215)" fill="#444"/>
    <path id="パス_1447" data-name="パス 1447" d="M12,10a1,1,0,0,1-1-1V3a1,1,0,0,1,2,0V9A1,1,0,0,1,12,10Z" transform="translate(442.5 3215)" fill="#444"/>
    <path id="パス_1448" data-name="パス 1448" d="M31.5,16H4.5a1,1,0,0,1,0-2h27a1,1,0,0,1,0,2Z" transform="translate(442.5 3215)" fill="#444"/>
  </g>
</svg>
