<svg xmlns="http://www.w3.org/2000/svg" width="31" height="30" viewBox="0 0 31 30">
  <g id="ペン付きの書類アイコン" transform="translate(-0.002 -11.766)">
    <path id="パス_2160" data-name="パス 2160" d="M191.144,324.349a.679.679,0,0,0,.2-.491l.494-.493,4.007-.86a1.222,1.222,0,0,0,.913-.736s.76-1.7,1.222-2.467l-1.276-1.276-.2-.2-1.277-1.277c-.77.462-2.468,1.222-2.468,1.222a1.222,1.222,0,0,0-.735.912l-.861,4.008-.492.493a.683.683,0,1,0,.474,1.166Zm2.923-4.944a.746.746,0,1,1,0,1.055A.746.746,0,0,1,194.067,319.4Z" transform="translate(-178.529 -286.063)" fill="#696969"/>
    <path id="パス_2161" data-name="パス 2161" d="M285.03,277.16l-2.722-2.722-1.261,1.261a.809.809,0,0,1-.708.215l-.368.37,1.292,1.292.308.307,1.615,1.615.368-.369a.808.808,0,0,1,.215-.707Z" transform="translate(-263.064 -246.54)" fill="#696969"/>
    <path id="パス_2162" data-name="パス 2162" d="M336.261,125.665c-1.259-1.258-2.631-1.144-4.062.286s-5.541,6.549-6.51,7.518l2.769,2.768c.968-.968,6.087-5.08,7.517-6.51S337.519,126.923,336.261,125.665Zm-1.249,2.222-4.309,4.308a.267.267,0,0,1-.381,0l-.591-.591a.269.269,0,0,1,0-.38l4.308-4.309a.271.271,0,0,1,.383,0l.59.591A.269.269,0,0,1,335.012,127.886Z" transform="translate(-306.129 -106.086)" fill="#696969"/>
    <rect id="長方形_172" data-name="長方形 172" width="11.946" height="1.358" transform="translate(5.308 23.44)" fill="#696969"/>
    <rect id="長方形_173" data-name="長方形 173" width="8.959" height="1.357" transform="translate(5.324 28.192)" fill="#696969"/>
    <rect id="長方形_174" data-name="長方形 174" width="6.381" height="1.358" transform="translate(5.335 32.942)" fill="#696969"/>
    <path id="パス_2163" data-name="パス 2163" d="M21.592,32.967l-.485.409-.478.488v6.274H1.6V13.394H14.44v5.127a1.333,1.333,0,0,0,.38.934,1.283,1.283,0,0,0,.916.388h4.892v4.7l.806-.978.79-.96V18.147l-6.254-6.381H.667A.672.672,0,0,0,0,12.444V41.088a.672.672,0,0,0,.665.678H21.56a.672.672,0,0,0,.665-.678V31.743l-.763.778Zm-5.82-19.1L20.3,18.485H15.773Z" fill="#696969"/>
  </g>
</svg>
