<svg xmlns="http://www.w3.org/2000/svg" width="50" height="50" viewBox="0 0 50 50">
  <g id="ショッピングカートの無料アイコン10" transform="translate(-14.372)">
    <path id="パス_1435" data-name="パス 1435" d="M63.75,8.367a2.982,2.982,0,0,0-2.134-.855H25.679l-1.224-3.55v0A5.116,5.116,0,0,0,20.432.821l-4.393-.8A1.4,1.4,0,0,0,14.4.92,1.18,1.18,0,0,0,15.461,2.3l4.394.8a2.5,2.5,0,0,1,1.961,1.53l8.028,23.3c-.18.071-.356.149-.524.234a5.187,5.187,0,0,0-2.026,1.761,4.285,4.285,0,0,0-.7,2.241h0v.121h0a4.181,4.181,0,0,0,.444,1.756A5.125,5.125,0,0,0,29.1,36.156a6.448,6.448,0,0,0,3.192.824H58.116a1.18,1.18,0,1,0,0-2.328H32.295a3.4,3.4,0,0,1-1.149-.2,2.9,2.9,0,0,1-1.3-.905,2.082,2.082,0,0,1,.128-2.846,2.776,2.776,0,0,1,.759-.551,3.909,3.909,0,0,1,1.068-.347L57.755,26.24a3.9,3.9,0,0,0,3.387-2.751L64.317,10.3v0a2.022,2.022,0,0,0,.054-.463A2.12,2.12,0,0,0,63.75,8.367ZM58.442,23.024a1.3,1.3,0,0,1-1.13.918l-24.8,3.41L26.481,9.84H61.617Z" transform="translate(0)" fill="#696969"/>
    <path id="パス_1436" data-name="パス 1436" d="M169.5,439.422a5.377,5.377,0,1,0,1.948,2.368A5.375,5.375,0,0,0,169.5,439.422Zm-1.011,5.308a2.188,2.188,0,0,1-.787.955,2.172,2.172,0,0,1-2.057.2,2.185,2.185,0,0,1-.956-.788,2.18,2.18,0,0,1-.2-2.056,2.186,2.186,0,0,1,.788-.956,2.15,2.15,0,0,1,1.211-.371,2.173,2.173,0,0,1,2,3.016Z" transform="translate(-132.683 -399.268)" fill="#696969"/>
    <path id="パス_1437" data-name="パス 1437" d="M371.033,439.422a5.377,5.377,0,1,0,1.948,2.368A5.376,5.376,0,0,0,371.033,439.422Zm-1.012,5.308a2.174,2.174,0,0,1-.788.955,2.167,2.167,0,0,1-2.054.2,2.187,2.187,0,0,1-.958-.788,2.183,2.183,0,0,1-.2-2.056,2.176,2.176,0,0,1,.789-.956,2.147,2.147,0,0,1,1.211-.371,2.172,2.172,0,0,1,2,3.016Z" transform="translate(-318.04 -399.268)" fill="#696969"/>
  </g>
</svg>
