<svg xmlns="http://www.w3.org/2000/svg" width="50" height="40" viewBox="0 0 50 40">
  <g id="twitterのフリーアイコン素材" transform="translate(268.18 -91.811)">
    <path id="パス_1434" data-name="パス 1434" d="M195.74,168.625c.019-.027.041-.052.059-.079a20.718,20.718,0,0,1-4.641,1.4c-.386.057-.775.106-1.169.136a10.186,10.186,0,0,0,3.842-4.169,10.83,10.83,0,0,0,.614-1.315c-.019.012-.041.02-.06.032.009-.027.024-.05.033-.077a20.731,20.731,0,0,1-6.511,2.45,10.314,10.314,0,0,0-7.484-3.189,10.177,10.177,0,0,0-10.254,10.1,9.995,9.995,0,0,0,.233,2.115c.009.062.014.122.023.185a29.266,29.266,0,0,1-19.194-8.446,28.032,28.032,0,0,1-1.886-2.078l-.008.015c-.012-.014-.026-.027-.038-.041a9.961,9.961,0,0,0,1.835,12.408,10.942,10.942,0,0,0,1.263,1.067,10.337,10.337,0,0,1-4.569-1.256c0,.042,0,.084,0,.127a10.07,10.07,0,0,0,5.983,9.147,10.529,10.529,0,0,0,2.152.772,10.417,10.417,0,0,1-2.611.336,10.294,10.294,0,0,1-1.7-.16c-.057-.016-.12-.02-.175-.037,0,.008.007.014.009.022-.019,0-.041,0-.059-.006a10.223,10.223,0,0,0,7.937,6.853,10.833,10.833,0,0,0,1.6.191,20.774,20.774,0,0,1-12.691,4.291c-.665,0-1.317-.053-1.966-.113-.15-.026-.305-.036-.451-.072.028.018.059.033.087.051-.038,0-.077,0-.115-.007a29.346,29.346,0,0,0,15.718,4.537,28.205,28.205,0,0,0,23.121-11.161c.016-.021.034-.041.05-.062.469-.62.9-1.26,1.315-1.91.085-.133.18-.259.263-.393.382-.621.728-1.257,1.061-1.9.083-.16.178-.314.258-.476q.583-1.172,1.055-2.378l.012-.028a28.722,28.722,0,0,0,2.039-10.425q0-.657-.03-1.306a20.69,20.69,0,0,0,4.219-4.025c.315-.378.626-.759.919-1.155C195.794,168.6,195.766,168.614,195.74,168.625Z" transform="translate(-414 -72)" fill="#696969"/>
  </g>
</svg>
