<svg xmlns="http://www.w3.org/2000/svg" width="50" height="40" viewBox="0 0 50 40">
  <g id="メールのアイコンその9" transform="translate(214 -0.188)">
    <g id="メールのアイコンその9_1_" data-name="メールのアイコンその9 (1)" transform="translate(-214 0.188)">
      <path id="パス_1439" data-name="パス 1439" d="M49.878,61.61a6.8,6.8,0,0,0-1.36-2.949,5.629,5.629,0,0,0-.443-.5,6.508,6.508,0,0,0-4.642-1.972H6.567a6.443,6.443,0,0,0-4.642,1.973,5.859,5.859,0,0,0-.447.507,6.719,6.719,0,0,0-1.35,2.946A6.659,6.659,0,0,0,0,62.919V89.458a6.809,6.809,0,0,0,.546,2.677,6.652,6.652,0,0,0,1.378,2.081c.148.151.3.29.452.426a6.486,6.486,0,0,0,4.191,1.546H43.433a6.438,6.438,0,0,0,4.2-1.557,5.739,5.739,0,0,0,.447-.415,6.7,6.7,0,0,0,1.344-1.987l.043-.105A6.778,6.778,0,0,0,50,89.458V62.919A7.063,7.063,0,0,0,49.878,61.61ZM3.4,60.484a3.147,3.147,0,0,1,.363-.439,3.893,3.893,0,0,1,2.8-1.193H43.433a3.865,3.865,0,0,1,2.8,1.194,4.031,4.031,0,0,1,.358.428l.282.388L27.2,78.441a3.284,3.284,0,0,1-4.4,0L3.144,60.867ZM2.613,89.692a1.646,1.646,0,0,1-.013-.234V63.469L17.87,77.122,2.754,90.631Zm42.788,3.3a3.867,3.867,0,0,1-1.967.535H6.567A3.864,3.864,0,0,1,4.6,92.988l-.618-.367L19.6,78.67,21.312,80.2a5.514,5.514,0,0,0,7.382,0L30.4,78.669,46.018,92.621Zm2-3.53a1.722,1.722,0,0,1-.011.231l-.135.948L32.13,77.13,47.4,63.475Z" transform="translate(0 -56.188)" fill="#696969"/>
    </g>
  </g>
</svg>
