<svg xmlns="http://www.w3.org/2000/svg" width="30" height="30" viewBox="0 0 30 30">
  <g id="グループ_525" data-name="グループ 525" transform="translate(-952 -3218)">
    <path id="パス_1435" data-name="パス 1435" d="M44,5.012A1.79,1.79,0,0,0,42.718,4.5H21.156l-.734-2.127h0A3.069,3.069,0,0,0,18.008.492L15.372.015a.837.837,0,0,0-.981.536.707.707,0,0,0,.635.828l2.636.477a1.5,1.5,0,0,1,1.176.917l4.817,13.956c-.108.043-.213.089-.315.14a3.111,3.111,0,0,0-1.215,1.055,2.564,2.564,0,0,0-.422,1.342h0v.072h0a2.5,2.5,0,0,0,.267,1.052,3.072,3.072,0,0,0,1.241,1.27,3.873,3.873,0,0,0,1.915.493H40.619a.707.707,0,1,0,0-1.394H25.126a2.041,2.041,0,0,1-.689-.117,1.743,1.743,0,0,1-.78-.542,1.246,1.246,0,0,1,.077-1.7,1.665,1.665,0,0,1,.455-.33,2.348,2.348,0,0,1,.641-.208L40.4,15.719a2.338,2.338,0,0,0,2.032-1.648l1.9-7.9h0a1.209,1.209,0,0,0,.033-.277A1.269,1.269,0,0,0,44,5.012Zm-3.185,8.781a.779.779,0,0,1-.678.55L25.258,16.386,21.638,5.895H42.719Z" transform="translate(937.628 3218)" fill="#444"/>
    <path id="パス_1436" data-name="パス 1436" d="M166.164,439.057a3.24,3.24,0,1,0,1.174,1.427A3.239,3.239,0,0,0,166.164,439.057Zm-.609,3.2a1.319,1.319,0,0,1-.474.576,1.309,1.309,0,0,1-1.24.121,1.317,1.317,0,0,1-.576-.475,1.314,1.314,0,0,1-.121-1.239,1.317,1.317,0,0,1,.475-.576,1.3,1.3,0,0,1,.73-.223,1.309,1.309,0,0,1,1.206,1.818Z" transform="translate(799.315 2803.01)" fill="#444"/>
    <path id="パス_1437" data-name="パス 1437" d="M367.7,439.057a3.24,3.24,0,1,0,1.174,1.427A3.24,3.24,0,0,0,367.7,439.057Zm-.61,3.2a1.31,1.31,0,0,1-.475.576,1.306,1.306,0,0,1-1.238.121,1.318,1.318,0,0,1-.577-.475,1.315,1.315,0,0,1-.12-1.239,1.312,1.312,0,0,1,.475-.576,1.294,1.294,0,0,1,.73-.223,1.309,1.309,0,0,1,1.205,1.818Z" transform="translate(607.445 2803.01)" fill="#444"/>
  </g>
</svg>
