<svg xmlns="http://www.w3.org/2000/svg" width="200" height="63" viewBox="0 0 200 63">
  <g id="logo" transform="translate(-203.666 -356.965)">
    <path id="パス_1440" data-name="パス 1440" d="M446.231,419.933q0-1.036-.046-2.164-.023-1.151-.138-2.141a6.206,6.206,0,0,0,1.036.115,3.524,3.524,0,0,0,.391-.023q.23-.046.529-.092-.069.921-.069,1.842h.046a3.8,3.8,0,0,1,3.43-2.072,3.547,3.547,0,0,1,1.128.184,3.452,3.452,0,0,1,.99.46,2.983,2.983,0,0,1,.783.737,2.33,2.33,0,0,1,.437.9h.046a4.007,4.007,0,0,1,1.5-1.681,4.113,4.113,0,0,1,2.21-.6,4.566,4.566,0,0,1,1.4.207,2.838,2.838,0,0,1,1.105.645,2.778,2.778,0,0,1,.737,1.128,4.46,4.46,0,0,1,.276,1.658q0,.391-.023.852t-.046,1.082q-.023.6-.046,1.381-.023.76-.023,1.773v1.2q.023.576.069,1.243a2.837,2.837,0,0,0-.506-.046h-.99a2.837,2.837,0,0,0-.506.046q.069-.576.138-2.325.092-1.75.092-4.881a4.094,4.094,0,0,0-.138-1.082,2.278,2.278,0,0,0-.391-.875,1.847,1.847,0,0,0-.737-.576,2.56,2.56,0,0,0-1.151-.23,2.838,2.838,0,0,0-1.4.322,2.77,2.77,0,0,0-.9.76,2.916,2.916,0,0,0-.3.507,3.977,3.977,0,0,0-.161.783q-.046.507-.069,1.45-.023.921-.023,2.555,0,.99.023,1.819.046.806.092,1.773-.529-.046-1.013-.046t-1.013.046q.115-1.266.161-2.579t.046-2.578q0-1.082-.023-1.681a7.8,7.8,0,0,0-.046-.967,2.46,2.46,0,0,0-.138-.6,3.216,3.216,0,0,0-.207-.506,1.992,1.992,0,0,0-.806-.737,2.1,2.1,0,0,0-1.105-.322,2.566,2.566,0,0,0-2.233.99,4.7,4.7,0,0,0-.714,2.786v1.957q0,1.036.023,2.187.046,1.128.161,2.049-.529-.046-1.036-.046t-1.036.046a19.98,19.98,0,0,0,.138-2.049q.046-1.151.046-2.187Zm25.808-3.8a2.593,2.593,0,0,0-1.45.391,3.494,3.494,0,0,0-.967.99,4.917,4.917,0,0,0-.576,1.289,7.135,7.135,0,0,0-.23,1.312l1.473.046q.783.023,1.519.023.76,0,1.542-.023l1.52-.046a8,8,0,0,0-.115-1.312,3.741,3.741,0,0,0-.414-1.289,2.649,2.649,0,0,0-.852-.99A2.457,2.457,0,0,0,472.039,416.135Zm-5.318,5.318a6.762,6.762,0,0,1,1.335-4.443,4.859,4.859,0,0,1,3.937-1.612,5.107,5.107,0,0,1,2.095.391,4.166,4.166,0,0,1,1.5,1.013,3.771,3.771,0,0,1,.875,1.473,5.454,5.454,0,0,1,.3,1.819q0,.23-.023.46c0,.138-.008.284-.023.437l-2.463-.046q-1.22-.023-2.463-.023-.76,0-1.519.023l-1.5.046a1.891,1.891,0,0,0-.023.345v.3a5.424,5.424,0,0,0,.253,1.681,4.091,4.091,0,0,0,.783,1.358,3.915,3.915,0,0,0,1.243.9,4.219,4.219,0,0,0,1.7.322,4.074,4.074,0,0,0,.944-.115,6.963,6.963,0,0,0,.944-.345,5.314,5.314,0,0,0,.852-.53,4.171,4.171,0,0,0,.714-.645l.115.069-.138,1.128a6.319,6.319,0,0,1-1.727.944,5.828,5.828,0,0,1-2.118.391,6.759,6.759,0,0,1-2.279-.368,5.4,5.4,0,0,1-1.773-1.105,5.314,5.314,0,0,1-1.151-1.727A5.768,5.768,0,0,1,466.721,421.453Zm17.451,5.111q-.276-.852-.737-2.164t-1.013-2.786q-.53-1.5-1.128-3.039-.576-1.565-1.151-2.947.276.046.529.092.276.023.552.023.253,0,.507-.023.253-.046.552-.092.6,2.164,1.312,4.351.737,2.164,1.635,4.466.276-.645.668-1.7t.806-2.279q.414-1.22.829-2.486t.737-2.348a2.681,2.681,0,0,0,.691.115,1.969,1.969,0,0,0,.322-.023q.138-.046.322-.092.575,2.21,1.335,4.374.76,2.141,1.589,4.443.3-.737.691-1.8.414-1.082.852-2.256.437-1.2.875-2.44.46-1.243.852-2.325a3.216,3.216,0,0,0,.737.115,2.494,2.494,0,0,0,.691-.115q-1.312,2.786-2.463,5.5-1.128,2.717-2.118,5.433a3.4,3.4,0,0,0-.6-.046h-.322a.745.745,0,0,0-.276.046q-.6-2.049-1.312-4.121t-1.635-4.351q-.276.691-.668,1.727-.392,1.013-.806,2.187T486.2,424.4q-.414,1.2-.737,2.164a4.532,4.532,0,0,0-1.289,0Zm26.283-6.63q0-1.036-.046-2.164-.023-1.151-.138-2.141a6.206,6.206,0,0,0,1.036.115,3.519,3.519,0,0,0,.391-.023q.23-.046.529-.092-.069.921-.069,1.842h.046a3.8,3.8,0,0,1,3.43-2.072,3.546,3.546,0,0,1,1.128.184,3.444,3.444,0,0,1,.99.46,2.982,2.982,0,0,1,.783.737,2.328,2.328,0,0,1,.437.9h.046a4.008,4.008,0,0,1,1.5-1.681,4.113,4.113,0,0,1,2.21-.6,4.564,4.564,0,0,1,1.4.207,2.838,2.838,0,0,1,1.105.645,2.779,2.779,0,0,1,.737,1.128,4.463,4.463,0,0,1,.276,1.658q0,.391-.023.852t-.046,1.082q-.023.6-.046,1.381-.023.76-.023,1.773v1.2q.023.576.069,1.243a2.834,2.834,0,0,0-.506-.046h-.99a2.841,2.841,0,0,0-.506.046q.069-.576.138-2.325.092-1.75.092-4.881a4.1,4.1,0,0,0-.138-1.082,2.279,2.279,0,0,0-.391-.875,1.844,1.844,0,0,0-.737-.576,2.562,2.562,0,0,0-1.151-.23,2.838,2.838,0,0,0-1.4.322,2.776,2.776,0,0,0-.9.76,2.929,2.929,0,0,0-.3.507,3.992,3.992,0,0,0-.161.783q-.046.507-.069,1.45-.023.921-.023,2.555,0,.99.023,1.819.046.806.092,1.773-.529-.046-1.013-.046t-1.013.046q.116-1.266.161-2.579t.046-2.578q0-1.082-.023-1.681a7.709,7.709,0,0,0-.046-.967,2.444,2.444,0,0,0-.138-.6,3.212,3.212,0,0,0-.207-.506,1.993,1.993,0,0,0-.806-.737,2.1,2.1,0,0,0-1.105-.322,2.566,2.566,0,0,0-2.233.99,4.7,4.7,0,0,0-.714,2.786v1.957q0,1.036.023,2.187.047,1.128.161,2.049-.529-.046-1.036-.046t-1.036.046a19.791,19.791,0,0,0,.138-2.049q.046-1.151.046-2.187Zm21.434,3.154q0-1.22.023-2.072.046-.875.046-1.727,0-.806-.023-1.75,0-.944-.023-1.911a5.093,5.093,0,0,0,.967.115,5.022,5.022,0,0,0,.944-.115q-.115,1.381-.184,3.039-.046,1.634-.046,3.361a6.32,6.32,0,0,0,.207,1.842,2.579,2.579,0,0,0,.506.944,2.749,2.749,0,0,0,.806.622,2.811,2.811,0,0,0,1.174.23,2.925,2.925,0,0,0,1.612-.414,2.692,2.692,0,0,0,.944-1.059q.161-.391.253-.668a3.5,3.5,0,0,0,.138-.737,8.8,8.8,0,0,0,.069-1.243q.023-.783.023-2.141V417.47q0-.507-.023-.967,0-.46-.023-.875.253.046.483.092a5.077,5.077,0,0,0,.967,0l.461-.092q-.115,1.8-.138,3.476-.023,1.658-.023,3.522,0,1.036.023,2.026t.069,1.911q-.46-.046-.9-.046t-.9.046a3.928,3.928,0,0,0,.023-.437,4.819,4.819,0,0,0,.023-.483v-.99h-.046a3.983,3.983,0,0,1-1.542,1.635,4.265,4.265,0,0,1-2.049.506,4.047,4.047,0,0,1-2.832-.944A3.64,3.64,0,0,1,531.889,423.087Zm14.979,1.335a2.723,2.723,0,0,0,.345.507,4.825,4.825,0,0,0,.575.53,3.938,3.938,0,0,0,.76.391,2.64,2.64,0,0,0,.921.161,2.47,2.47,0,0,0,.829-.138,2.136,2.136,0,0,0,.714-.391,1.752,1.752,0,0,0,.507-.645,2.081,2.081,0,0,0,.184-.9,1.372,1.372,0,0,0-.414-1.082,2.8,2.8,0,0,0-.99-.622,9.384,9.384,0,0,0-1.312-.437,5.836,5.836,0,0,1-1.312-.507,3.343,3.343,0,0,1-1.013-.9,2.591,2.591,0,0,1-.391-1.519,3.632,3.632,0,0,1,.253-1.381,3.041,3.041,0,0,1,.737-1.105,3.317,3.317,0,0,1,1.2-.714,4.505,4.505,0,0,1,1.635-.276,3.859,3.859,0,0,1,1.427.23q.6.23,1.128.414a5.165,5.165,0,0,0-.345.852,6.221,6.221,0,0,0-.207.783h-.276a2.179,2.179,0,0,0-.714-.99,1.991,1.991,0,0,0-1.312-.437,2.175,2.175,0,0,0-.691.115,1.9,1.9,0,0,0-.622.345,1.835,1.835,0,0,0-.46.6,1.938,1.938,0,0,0-.184.875,1.611,1.611,0,0,0,.391,1.151,3.055,3.055,0,0,0,1.013.622,12.023,12.023,0,0,0,1.312.414,5.147,5.147,0,0,1,1.312.483,2.646,2.646,0,0,1,.99.852,2.481,2.481,0,0,1,.414,1.519,3.089,3.089,0,0,1-.3,1.312,3.568,3.568,0,0,1-.829,1.174,3.915,3.915,0,0,1-1.289.806,5.032,5.032,0,0,1-1.727.276,6.458,6.458,0,0,1-1.773-.207,5.542,5.542,0,0,1-1.2-.483,5.32,5.32,0,0,0,.276-.806,3.129,3.129,0,0,0,.161-.875Zm15.74-8.288a2.594,2.594,0,0,0-1.45.391,3.5,3.5,0,0,0-.967.99,4.93,4.93,0,0,0-.576,1.289,7.192,7.192,0,0,0-.23,1.312l1.474.046q.783.023,1.519.023.76,0,1.542-.023l1.519-.046a7.975,7.975,0,0,0-.115-1.312,3.727,3.727,0,0,0-.414-1.289,2.646,2.646,0,0,0-.852-.99A2.458,2.458,0,0,0,562.608,416.135Zm-5.318,5.318a6.764,6.764,0,0,1,1.335-4.443,4.86,4.86,0,0,1,3.937-1.612,5.105,5.105,0,0,1,2.1.391,4.164,4.164,0,0,1,1.5,1.013,3.769,3.769,0,0,1,.875,1.473,5.446,5.446,0,0,1,.3,1.819,4.543,4.543,0,0,1-.023.46,4.357,4.357,0,0,1-.023.437l-2.463-.046q-1.22-.023-2.463-.023-.76,0-1.52.023l-1.5.046a1.925,1.925,0,0,0-.023.345v.3a5.434,5.434,0,0,0,.253,1.681,4.1,4.1,0,0,0,.783,1.358,3.922,3.922,0,0,0,1.243.9,4.219,4.219,0,0,0,1.7.322,4.072,4.072,0,0,0,.944-.115,6.939,6.939,0,0,0,.944-.345,5.279,5.279,0,0,0,.852-.53,4.164,4.164,0,0,0,.714-.645l.115.069-.138,1.128A6.321,6.321,0,0,1,565,426.4a5.828,5.828,0,0,1-2.118.391,6.758,6.758,0,0,1-2.279-.368,5.4,5.4,0,0,1-1.773-1.105,5.316,5.316,0,0,1-1.151-1.727A5.775,5.775,0,0,1,557.29,421.453Z" transform="translate(-163.661 -39.153)"/>
    <path id="パス_1441" data-name="パス 1441" d="M506.81,474.488a.889.889,0,0,0-.5.134,1.2,1.2,0,0,0-.331.339,1.685,1.685,0,0,0-.2.442,2.455,2.455,0,0,0-.079.45l.505.016q.268.008.521.008t.529-.008l.521-.016a2.741,2.741,0,0,0-.039-.45,1.282,1.282,0,0,0-.142-.442.908.908,0,0,0-.292-.339A.843.843,0,0,0,506.81,474.488Zm-1.823,1.823a2.318,2.318,0,0,1,.458-1.523,1.666,1.666,0,0,1,1.35-.553,1.751,1.751,0,0,1,.718.134,1.429,1.429,0,0,1,.513.347,1.292,1.292,0,0,1,.3.505,1.868,1.868,0,0,1,.1.624q0,.079-.008.158t-.008.15l-.845-.016q-.418-.008-.845-.008-.261,0-.521.008l-.513.016a.65.65,0,0,0-.008.118v.1a1.86,1.86,0,0,0,.087.576,1.4,1.4,0,0,0,.268.466,1.343,1.343,0,0,0,.426.308,1.446,1.446,0,0,0,.584.111,1.394,1.394,0,0,0,.324-.039,2.383,2.383,0,0,0,.324-.118,1.816,1.816,0,0,0,.292-.182,1.425,1.425,0,0,0,.245-.221l.039.024-.047.387a2.166,2.166,0,0,1-.592.324,2,2,0,0,1-.726.134,2.319,2.319,0,0,1-.781-.126,1.854,1.854,0,0,1-.608-.379,1.824,1.824,0,0,1-.395-.592A1.979,1.979,0,0,1,504.987,476.311Zm7.633-.466a1.457,1.457,0,0,0-.229-.892.743.743,0,0,0-.632-.308.96.96,0,0,0-.813.339,1.574,1.574,0,0,0-.253.955v.671q0,.355.008.75t.055.7q-.181-.016-.355-.016t-.355.016a6.816,6.816,0,0,0,.047-.7q.016-.395.016-.75v-.821q0-.355-.016-.742t-.047-.734a2.119,2.119,0,0,0,.355.039,1.223,1.223,0,0,0,.134-.008q.079-.016.182-.032-.024.316-.024.631h.016a1.609,1.609,0,0,1,.529-.521,1.373,1.373,0,0,1,.734-.189,1.6,1.6,0,0,1,.442.063,1.054,1.054,0,0,1,.7.639,1.63,1.63,0,0,1,.118.671q0,.339-.016.7t-.016.758v.766q.008.118.016.229-.158-.016-.331-.016t-.324.016q.016-.41.032-.845t.024-.892Zm3.32-2.589q-.024.3-.039.592t-.024.576h.324q.237-.008.513-.024a.319.319,0,0,0-.008.087v.166a.278.278,0,0,0,.008.079q-.1-.008-.213-.008t-.237-.008h-.387q-.008.032-.024.253t-.016.529q-.008.3-.016.632v.592q0,.221.008.434a1.441,1.441,0,0,0,.079.387.625.625,0,0,0,.19.268.563.563,0,0,0,.363.1,1.144,1.144,0,0,0,.166-.016,1.322,1.322,0,0,0,.189-.039v.189l-.3.055a1.267,1.267,0,0,1-.308.039.981.981,0,0,1-.734-.245.994.994,0,0,1-.237-.718q0-.213.008-.458t.016-.545q.016-.3.024-.655t.008-.805h-.253a1.22,1.22,0,0,0-.134.008q-.071,0-.15.008a.546.546,0,0,0,.008-.087.591.591,0,0,0,.008-.095,103.557,103.557,0,0,1-.016-.158q.355.024.521.024-.008-.158-.016-.395t-.016-.489l.655-.276Zm3.768,1.231a.889.889,0,0,0-.5.134,1.2,1.2,0,0,0-.332.339,1.689,1.689,0,0,0-.2.442,2.444,2.444,0,0,0-.079.45l.505.016q.269.008.521.008t.529-.008l.521-.016a2.727,2.727,0,0,0-.039-.45,1.283,1.283,0,0,0-.142-.442.908.908,0,0,0-.292-.339A.842.842,0,0,0,519.708,474.488Zm-1.823,1.823a2.318,2.318,0,0,1,.458-1.523,1.666,1.666,0,0,1,1.35-.553,1.75,1.75,0,0,1,.718.134,1.429,1.429,0,0,1,.513.347,1.292,1.292,0,0,1,.3.505,1.868,1.868,0,0,1,.1.624,1.554,1.554,0,0,1-.008.158,1.478,1.478,0,0,1-.008.15l-.844-.016q-.418-.008-.845-.008-.26,0-.521.008l-.513.016a.65.65,0,0,0-.008.118v.1a1.86,1.86,0,0,0,.087.576,1.4,1.4,0,0,0,.268.466,1.344,1.344,0,0,0,.426.308,1.446,1.446,0,0,0,.584.111,1.394,1.394,0,0,0,.324-.039,2.387,2.387,0,0,0,.324-.118,1.818,1.818,0,0,0,.292-.182,1.422,1.422,0,0,0,.245-.221l.039.024-.047.387a2.17,2.17,0,0,1-.592.324,2,2,0,0,1-.726.134,2.319,2.319,0,0,1-.781-.126,1.855,1.855,0,0,1-.608-.379,1.825,1.825,0,0,1-.395-.592A1.979,1.979,0,0,1,517.885,476.311Zm6.867-1.35a.356.356,0,0,0-.158-.087.679.679,0,0,0-.229-.039.665.665,0,0,0-.339.087.773.773,0,0,0-.253.237,1.057,1.057,0,0,0-.158.347,1.571,1.571,0,0,0-.055.426v1.681a4.374,4.374,0,0,0,.032.45q-.158-.016-.316-.016-.174,0-.332.016.024-.268.024-.726t.008-1.137v-.253q0-.308-.008-.71t-.024-.924l.166.032q.079.008.166.008.071,0,.15-.008l.166-.032q-.031.284-.039.45v.316l.016.008q.466-.852,1.042-.852a.749.749,0,0,1,.118.008.609.609,0,0,1,.134.039.9.9,0,0,0-.047.292q-.008.189-.008.347Zm2.329-1.7q-.024.3-.04.592t-.024.576h.324q.237-.008.513-.024a.318.318,0,0,0-.008.087v.166a.276.276,0,0,0,.008.079q-.1-.008-.213-.008t-.237-.008h-.387q-.008.032-.024.253t-.016.529q-.008.3-.016.632v.592q0,.221.008.434a1.438,1.438,0,0,0,.079.387.623.623,0,0,0,.189.268.563.563,0,0,0,.363.1,1.145,1.145,0,0,0,.166-.016,1.326,1.326,0,0,0,.189-.039v.189l-.3.055a1.267,1.267,0,0,1-.308.039.981.981,0,0,1-.734-.245.994.994,0,0,1-.237-.718q0-.213.008-.458t.016-.545q.016-.3.024-.655t.008-.805h-.253a1.219,1.219,0,0,0-.134.008c-.047,0-.1,0-.15.008a.533.533,0,0,0,.008-.087.571.571,0,0,0,.008-.095.4.4,0,0,0-.008-.079.4.4,0,0,0-.008-.079q.355.024.521.024-.008-.158-.016-.395t-.016-.489l.655-.276Zm4.3,2.842a1.967,1.967,0,0,1-.316.079q-.174.032-.355.071a3.035,3.035,0,0,0-.363.087,1.247,1.247,0,0,0-.316.15.793.793,0,0,0-.221.237.742.742,0,0,0-.079.363.71.71,0,0,0,.213.56.7.7,0,0,0,.474.189.95.95,0,0,0,.545-.166,1.231,1.231,0,0,0,.387-.387Zm-1.95-1.4a2.239,2.239,0,0,1,.655-.363,2.031,2.031,0,0,1,.616-.095,1.5,1.5,0,0,1,.521.087,1.061,1.061,0,0,1,.4.237,1.049,1.049,0,0,1,.26.371,1.152,1.152,0,0,1,.095.474q0,.45-.016.9t-.016.939v.205a.705.705,0,0,0,.039.189.392.392,0,0,0,.087.134.268.268,0,0,0,.181.055h.079a.246.246,0,0,0,.087-.032v.174a.933.933,0,0,1-.221.063,1.55,1.55,0,0,1-.284.024.544.544,0,0,1-.387-.126.555.555,0,0,1-.158-.339,2.124,2.124,0,0,1-.56.418,1.546,1.546,0,0,1-.679.134,1.373,1.373,0,0,1-.387-.055.922.922,0,0,1-.339-.182,1.108,1.108,0,0,1-.237-.3,1.05,1.05,0,0,1,.205-1.144,1.636,1.636,0,0,1,.821-.347q.426-.071.663-.118a1.69,1.69,0,0,0,.355-.11.245.245,0,0,0,.142-.126.7.7,0,0,0,.024-.2,1.5,1.5,0,0,0-.047-.379.879.879,0,0,0-.15-.316.722.722,0,0,0-.268-.213.859.859,0,0,0-.4-.087,1.275,1.275,0,0,0-.592.142.941.941,0,0,0-.4.395h-.087Zm4.752-1.752a.4.4,0,1,1,.118.284A.388.388,0,0,1,534.179,472.94Zm.11,2.85q0-.355-.016-.742t-.047-.734a1.617,1.617,0,0,0,.71,0q-.039.339-.055.734t-.008.742v.821q0,.355.008.75t.055.7q-.181-.016-.355-.016t-.355.016a6.818,6.818,0,0,0,.047-.7q.016-.395.016-.75Zm5.354.055a1.456,1.456,0,0,0-.229-.892.743.743,0,0,0-.631-.308.96.96,0,0,0-.813.339,1.575,1.575,0,0,0-.253.955v.671q0,.355.008.75t.055.7q-.182-.016-.355-.016t-.355.016a6.8,6.8,0,0,0,.047-.7q.016-.395.016-.75v-.821q0-.355-.016-.742t-.047-.734a2.119,2.119,0,0,0,.355.039,1.221,1.221,0,0,0,.134-.008c.052-.011.113-.021.181-.032q-.024.316-.024.631h.016a1.609,1.609,0,0,1,.529-.521,1.374,1.374,0,0,1,.734-.189,1.6,1.6,0,0,1,.442.063,1.054,1.054,0,0,1,.7.639,1.631,1.631,0,0,1,.118.671q0,.339-.016.7t-.016.758v.766q.008.118.016.229-.158-.016-.332-.016t-.324.016q.016-.41.031-.845t.024-.892Zm2.618-.055q0-.355-.016-.742t-.047-.734a2.119,2.119,0,0,0,.355.039,1.219,1.219,0,0,0,.134-.008q.079-.016.182-.032-.024.316-.024.631h.016a1.3,1.3,0,0,1,1.176-.71,1.215,1.215,0,0,1,.387.063,1.182,1.182,0,0,1,.339.158,1.021,1.021,0,0,1,.268.253.8.8,0,0,1,.15.308h.016a1.374,1.374,0,0,1,.513-.576,1.409,1.409,0,0,1,.758-.205,1.564,1.564,0,0,1,.482.071.975.975,0,0,1,.379.221.953.953,0,0,1,.253.387,1.53,1.53,0,0,1,.095.568q0,.134-.008.292t-.016.371q-.008.205-.016.474t-.008.608v.41q.008.2.024.426a.971.971,0,0,0-.174-.016h-.339a.971.971,0,0,0-.174.016q.024-.2.047-.8t.032-1.673a1.4,1.4,0,0,0-.047-.371.782.782,0,0,0-.134-.3.633.633,0,0,0-.253-.2.878.878,0,0,0-.395-.079.972.972,0,0,0-.482.111.951.951,0,0,0-.308.26,1,1,0,0,0-.1.174,1.362,1.362,0,0,0-.055.268q-.016.174-.024.5t-.008.876q0,.339.008.624t.032.608q-.182-.016-.347-.016t-.347.016q.04-.434.055-.884t.016-.884q0-.371-.008-.576a2.656,2.656,0,0,0-.016-.332.839.839,0,0,0-.047-.205,1.082,1.082,0,0,0-.071-.174.682.682,0,0,0-.276-.253.718.718,0,0,0-.379-.111.88.88,0,0,0-.766.339,1.612,1.612,0,0,0-.245.955v.671q0,.355.008.75t.055.7q-.182-.016-.355-.016t-.355.016a6.815,6.815,0,0,0,.047-.7q.016-.395.016-.75Zm8.848-1.3a.889.889,0,0,0-.5.134,1.2,1.2,0,0,0-.332.339,1.689,1.689,0,0,0-.2.442,2.449,2.449,0,0,0-.079.45l.505.016q.268.008.521.008t.529-.008l.521-.016a2.747,2.747,0,0,0-.039-.45,1.285,1.285,0,0,0-.142-.442.908.908,0,0,0-.292-.339A.843.843,0,0,0,551.11,474.488Zm-1.823,1.823a2.318,2.318,0,0,1,.458-1.523,1.666,1.666,0,0,1,1.35-.553,1.751,1.751,0,0,1,.718.134,1.428,1.428,0,0,1,.513.347,1.292,1.292,0,0,1,.3.505,1.868,1.868,0,0,1,.1.624q0,.079-.008.158t-.008.15l-.845-.016q-.418-.008-.845-.008-.261,0-.521.008l-.513.016a.643.643,0,0,0-.008.118v.1a1.86,1.86,0,0,0,.087.576,1.4,1.4,0,0,0,.268.466,1.342,1.342,0,0,0,.426.308,1.446,1.446,0,0,0,.584.111,1.394,1.394,0,0,0,.324-.039,2.389,2.389,0,0,0,.324-.118,1.825,1.825,0,0,0,.292-.182,1.429,1.429,0,0,0,.245-.221l.039.024-.047.387a2.169,2.169,0,0,1-.592.324,2,2,0,0,1-.726.134,2.319,2.319,0,0,1-.781-.126,1.854,1.854,0,0,1-.608-.379,1.825,1.825,0,0,1-.395-.592A1.982,1.982,0,0,1,549.286,476.311Zm7.633-.466a1.457,1.457,0,0,0-.229-.892.743.743,0,0,0-.631-.308.96.96,0,0,0-.813.339,1.574,1.574,0,0,0-.253.955v.671q0,.355.008.75t.055.7q-.181-.016-.355-.016t-.355.016a6.817,6.817,0,0,0,.047-.7q.016-.395.016-.75v-.821q0-.355-.016-.742t-.047-.734a2.118,2.118,0,0,0,.355.039,1.223,1.223,0,0,0,.134-.008q.079-.016.181-.032-.024.316-.024.631h.016a1.609,1.609,0,0,1,.529-.521,1.374,1.374,0,0,1,.734-.189,1.6,1.6,0,0,1,.442.063,1.054,1.054,0,0,1,.7.639,1.632,1.632,0,0,1,.118.671q0,.339-.016.7t-.016.758v.766q.008.118.016.229-.158-.016-.331-.016t-.324.016q.016-.41.031-.845t.024-.892Zm3.32-2.589q-.024.3-.04.592t-.024.576h.324q.237-.008.513-.024a.315.315,0,0,0-.008.087v.166a.274.274,0,0,0,.008.079q-.1-.008-.213-.008t-.237-.008h-.387q-.008.032-.024.253t-.016.529q-.008.3-.016.632v.592q0,.221.008.434a1.438,1.438,0,0,0,.079.387.624.624,0,0,0,.189.268.563.563,0,0,0,.363.1,1.143,1.143,0,0,0,.166-.016,1.325,1.325,0,0,0,.19-.039v.189l-.3.055a1.267,1.267,0,0,1-.308.039.981.981,0,0,1-.734-.245.994.994,0,0,1-.237-.718q0-.213.008-.458t.016-.545q.016-.3.024-.655t.008-.805h-.253a1.221,1.221,0,0,0-.134.008q-.071,0-.15.008a.533.533,0,0,0,.008-.087.577.577,0,0,0,.008-.095,103.581,103.581,0,0,0-.016-.158q.355.024.521.024-.008-.158-.016-.395t-.016-.489l.655-.276Zm5.625,2.944a3.616,3.616,0,0,0,.055.639,1.819,1.819,0,0,0,.205.552,1.089,1.089,0,0,0,.379.379,1.272,1.272,0,0,0,1.168,0,1.088,1.088,0,0,0,.379-.379,1.682,1.682,0,0,0,.2-.552,3.267,3.267,0,0,0,0-1.279,1.6,1.6,0,0,0-.2-.545,1.067,1.067,0,0,0-.379-.387,1.271,1.271,0,0,0-1.168,0,1.068,1.068,0,0,0-.379.387,1.722,1.722,0,0,0-.205.545A3.617,3.617,0,0,0,565.865,476.2Zm-.695,0a2.222,2.222,0,0,1,.166-.908,1.711,1.711,0,0,1,1.066-.947,2.256,2.256,0,0,1,.687-.111,2.206,2.206,0,0,1,.687.111,1.687,1.687,0,0,1,.616.339,1.611,1.611,0,0,1,.442.608,2.133,2.133,0,0,1,.174.908,2.187,2.187,0,0,1-.174.916,1.7,1.7,0,0,1-.442.608,1.65,1.65,0,0,1-.616.324,2.546,2.546,0,0,1-.687.095,2.6,2.6,0,0,1-.687-.095,1.651,1.651,0,0,1-.616-.324,1.782,1.782,0,0,1-.45-.608A2.279,2.279,0,0,1,565.17,476.2Zm7.172-3.434a.8.8,0,0,0-.434-.118.6.6,0,0,0-.3.071.569.569,0,0,0-.2.174.708.708,0,0,0-.118.245,1.379,1.379,0,0,0-.031.3q0,.142.024.41t.071.513h.4q.205-.008.41-.008l-.016.079v.158l.016.079-.41-.016q-.2-.008-.4-.008v1.713q.008.845.031,1.7a.97.97,0,0,0-.174-.016h-.166q-.166,0-.347.016.055-.86.063-1.7t.008-1.721q-.142,0-.284.008l-.284.016a115.192,115.192,0,0,1,.016-.158,103.581,103.581,0,0,1-.016-.158q.142,0,.284.008h.284a2.869,2.869,0,0,1,.047-.5,3.709,3.709,0,0,1,.134-.529,3.469,3.469,0,0,1,.221-.489,1.652,1.652,0,0,1,.284-.395,1.422,1.422,0,0,1,.355-.253,1,1,0,0,1,.45-.11.5.5,0,0,1,.158.024q-.008.158-.024.316t-.008.316Zm3.081,0a.8.8,0,0,0-.434-.118.6.6,0,0,0-.3.071.568.568,0,0,0-.2.174.705.705,0,0,0-.118.245,1.383,1.383,0,0,0-.031.3q0,.142.024.41t.071.513h.4q.205-.008.411-.008l-.016.079v.158l.016.079-.411-.016q-.2-.008-.4-.008v1.713q.008.845.032,1.7a.971.971,0,0,0-.174-.016h-.166q-.166,0-.347.016.055-.86.063-1.7t.008-1.721q-.142,0-.284.008l-.284.016a1.184,1.184,0,0,0,0-.316q.142,0,.284.008h.284a2.864,2.864,0,0,1,.047-.5,3.709,3.709,0,0,1,.134-.529,3.455,3.455,0,0,1,.221-.489,1.654,1.654,0,0,1,.284-.395,1.423,1.423,0,0,1,.355-.253,1,1,0,0,1,.45-.11.5.5,0,0,1,.158.024q-.008.158-.024.316t-.008.316Zm.616.174a.4.4,0,1,1,.118.284A.387.387,0,0,1,576.039,472.94Zm.111,2.85q0-.355-.016-.742t-.047-.734a1.617,1.617,0,0,0,.71,0q-.039.339-.055.734t-.008.742v.821q0,.355.008.75t.055.7q-.181-.016-.355-.016t-.355.016a6.818,6.818,0,0,0,.047-.7q.016-.395.016-.75Zm2.413.41a2.069,2.069,0,0,1,.174-.884,1.744,1.744,0,0,1,1.1-.963,2.379,2.379,0,0,1,.742-.118,2.5,2.5,0,0,1,.774.111,1.323,1.323,0,0,1,.5.237q-.055.118-.1.253t-.071.268h-.063a1.011,1.011,0,0,0-.15-.205,1.382,1.382,0,0,0-.513-.347.927.927,0,0,0-.347-.063,1.329,1.329,0,0,0-.616.134,1.137,1.137,0,0,0-.418.355,1.66,1.66,0,0,0-.237.545,2.982,2.982,0,0,0-.071.671,1.888,1.888,0,0,0,.347,1.231,1.259,1.259,0,0,0,1.018.41,1.4,1.4,0,0,0,.324-.039,2.388,2.388,0,0,0,.324-.118,1.819,1.819,0,0,0,.292-.182,1.427,1.427,0,0,0,.245-.221l.039.024a2.353,2.353,0,0,0-.047.387,2.169,2.169,0,0,1-.592.324,2,2,0,0,1-.726.134,2.6,2.6,0,0,1-.687-.095,1.751,1.751,0,0,1-.616-.332,1.778,1.778,0,0,1-.45-.608A2.221,2.221,0,0,1,578.562,476.2Zm6.5-1.713a.889.889,0,0,0-.5.134,1.2,1.2,0,0,0-.332.339,1.687,1.687,0,0,0-.2.442,2.449,2.449,0,0,0-.079.45l.505.016q.268.008.521.008t.529-.008l.521-.016a2.734,2.734,0,0,0-.039-.45,1.283,1.283,0,0,0-.142-.442.908.908,0,0,0-.292-.339A.843.843,0,0,0,585.066,474.488Zm-1.823,1.823a2.319,2.319,0,0,1,.458-1.523,1.666,1.666,0,0,1,1.35-.553,1.751,1.751,0,0,1,.718.134,1.43,1.43,0,0,1,.513.347,1.293,1.293,0,0,1,.3.505,1.869,1.869,0,0,1,.1.624q0,.079-.008.158t-.008.15l-.845-.016q-.418-.008-.845-.008-.26,0-.521.008l-.513.016a.654.654,0,0,0-.008.118v.1a1.862,1.862,0,0,0,.087.576,1.4,1.4,0,0,0,.268.466,1.345,1.345,0,0,0,.426.308,1.446,1.446,0,0,0,.584.111,1.4,1.4,0,0,0,.324-.039,2.388,2.388,0,0,0,.324-.118,1.819,1.819,0,0,0,.292-.182,1.425,1.425,0,0,0,.245-.221l.039.024-.047.387a2.167,2.167,0,0,1-.592.324,2,2,0,0,1-.726.134,2.319,2.319,0,0,1-.781-.126,1.854,1.854,0,0,1-.608-.379,1.822,1.822,0,0,1-.395-.592A1.978,1.978,0,0,1,583.243,476.311Z" transform="translate(-203.216 -77.15)"/>
    <ellipse id="楕円形_3" data-name="楕円形 3" cx="31.409" cy="31.492" rx="31.409" ry="31.492" transform="translate(203.666 356.981)" fill="#fff" opacity="0.91" style="isolation: isolate"/>
    <path id="パス_1442" data-name="パス 1442" d="M254.824,413.523a31.352,31.352,0,0,1-42.07-3.677l.822-.677,15.8-13.012-1.281-1.551-14.179,11.676-.016-10.216.681-.591,12.169-10.552.746-.647-1.291-1.5-.746.647L213.9,393.454V365.893q.512-.5,1.047-.977l24.41,20.269-8.29,6.965,1.267,1.516,26.048-21.886v29.391l-11.563-10.027-.746-.647-1.291,1.5.746.647,12.169,10.552.681.591-.01,6.588q-.939.971-1.959,1.86l-11.815-10.255-1.318,1.52Zm-13.933-29.629L258.732,368.9l1.005-.845a31.354,31.354,0,0,0-43.253-4.43ZM211.924,368a31.558,31.558,0,0,0,.027,40.938v-.582l-.02-13.05h-.006Zm48.428,1.656v-.855a31.562,31.562,0,0,1-.014,39.321l.008-5.1h.006Z" transform="translate(-0.492 0)" fill-rule="evenodd"/>
  </g>
</svg>
