<svg xmlns="http://www.w3.org/2000/svg" width="33" height="96" viewBox="0 0 33 96">
  <g id="k0157_11" transform="translate(6.597 -7.777)">
    <path id="パス_2145" data-name="パス 2145" d="M5.124,91.612A15.733,15.733,0,0,1,0,79.8H0c0-4.777,0-31.221,0-49.838,0-8.412,0-15.292,0-17.009H0A13.4,13.4,0,0,1,3.334,4.293h0A12.7,12.7,0,0,1,13.1,0h0a12.74,12.74,0,0,1,9.758,4.176h0a13.3,13.3,0,0,1,3.34,8.78h0c0,5.6,0,50.946,0,55.658h0a10.525,10.525,0,0,1-2.889,7.145h0a9.753,9.753,0,0,1-7.1,3.16h0a9.694,9.694,0,0,1-7.165-3.285h0a10.645,10.645,0,0,1-2.822-7.021h0c0-3.24,0-53.007,0-53.007h0A1.168,1.168,0,0,1,7.382,14.43h0A1.168,1.168,0,0,1,8.54,15.608h0c0,.008,0,3.11,0,7.826h0c0,4.716,0,11.038,0,17.462h0c0,12.846,0,26.1,0,27.719h0a8.29,8.29,0,0,0,2.207,5.42h0a7.38,7.38,0,0,0,5.464,2.531h0a7.455,7.455,0,0,0,5.423-2.434h0a8.164,8.164,0,0,0,2.249-5.517h0c0-4.712,0-50.063,0-55.658h0a10.945,10.945,0,0,0-2.739-7.194h0A10.419,10.419,0,0,0,13.1,2.356h0a10.372,10.372,0,0,0-8.039,3.51h0a11.027,11.027,0,0,0-2.744,7.09h0c0,1.67,0,8.219,0,17,0,17.915,0,45,0,49.844h0A13.345,13.345,0,0,0,6.673,89.86h0A14.665,14.665,0,0,0,16.5,93.645h0a14.6,14.6,0,0,0,9.823-3.891h0A13.4,13.4,0,0,0,30.685,79.8h0c0-6.624,0-29.65,0-40.747h0V32.981h0a1.158,1.158,0,1,1,2.315,0v6.075h0c0,3.7,0,8.723,0,14.024h0c0,10.6,0,22.307,0,26.723h0A15.787,15.787,0,0,1,27.882,91.5h0A16.876,16.876,0,0,1,16.5,96h0A16.956,16.956,0,0,1,5.124,91.612Z" transform="translate(-6.597 7.777)" fill="#444"/>
  </g>
</svg>
