<svg xmlns="http://www.w3.org/2000/svg" width="17" height="17" viewBox="0 0 17 17">
  <g id="グループ_602" data-name="グループ 602" transform="translate(-333 -17)">
    <g id="グループ_470" data-name="グループ 470" transform="translate(332.5 16.5)">
      <path id="楕円形_10" data-name="楕円形 10" d="M2.5,1A1.5,1.5,0,1,0,4,2.5,1.5,1.5,0,0,0,2.5,1m0-1A2.5,2.5,0,1,1,0,2.5,2.5,2.5,0,0,1,2.5,0Z" transform="translate(0.5 0.5)" fill="#81c1dd"/>
      <path id="楕円形_10-2" data-name="楕円形 10" d="M2.5,1A1.5,1.5,0,1,0,4,2.5,1.5,1.5,0,0,0,2.5,1m0-1A2.5,2.5,0,1,1,0,2.5,2.5,2.5,0,0,1,2.5,0Z" transform="translate(12.5 0.5)" fill="#81c1dd"/>
      <path id="楕円形_10-3" data-name="楕円形 10" d="M2.5,1A1.5,1.5,0,1,0,4,2.5,1.5,1.5,0,0,0,2.5,1m0-1A2.5,2.5,0,1,1,0,2.5,2.5,2.5,0,0,1,2.5,0Z" transform="translate(0.5 12.5)" fill="#81c1dd"/>
      <path id="楕円形_10-4" data-name="楕円形 10" d="M2.5,1A1.5,1.5,0,1,0,4,2.5,1.5,1.5,0,0,0,2.5,1m0-1A2.5,2.5,0,1,1,0,2.5,2.5,2.5,0,0,1,2.5,0Z" transform="translate(12.5 12.5)" fill="#81c1dd"/>
    </g>
    <g id="グループ_471" data-name="グループ 471" transform="translate(335.5 18.25)">
      <path id="パス_2123" data-name="パス 2123" d="M.357,1.5H10.643c.118,0,.357-.378.357-.753S10.761,0,10.643,0H.357C.239,0,0,.375,0,.75S.239,1.5.357,1.5Z" transform="translate(0.5 0.55)" fill="#81c1dd"/>
      <path id="パス_2124" data-name="パス 2124" d="M.357,0H10.643c.118,0,.357.378.357.753s-.239.747-.357.747H.357C.239,1.5,0,1.125,0,.75S.239,0,.357,0Z" transform="translate(0.5 12.551)" fill="#81c1dd"/>
    </g>
  </g>
</svg>
