<svg xmlns="http://www.w3.org/2000/svg" width="17" height="17" viewBox="0 0 17 17">
  <g id="グループ_601" data-name="グループ 601" transform="translate(-336 -108)">
    <g id="グループ_470" data-name="グループ 470" transform="translate(335.5 107.5)">
      <path id="楕円形_10" data-name="楕円形 10" d="M2.5,1A1.5,1.5,0,1,0,4,2.5,1.5,1.5,0,0,0,2.5,1m0-1A2.5,2.5,0,1,1,0,2.5,2.5,2.5,0,0,1,2.5,0Z" transform="translate(0.5 0.5)" fill="#81c1dd"/>
      <path id="楕円形_10-2" data-name="楕円形 10" d="M2.5,1A1.5,1.5,0,1,0,4,2.5,1.5,1.5,0,0,0,2.5,1m0-1A2.5,2.5,0,1,1,0,2.5,2.5,2.5,0,0,1,2.5,0Z" transform="translate(12.5 0.5)" fill="#81c1dd"/>
      <path id="楕円形_10-3" data-name="楕円形 10" d="M2.5,1A1.5,1.5,0,1,0,4,2.5,1.5,1.5,0,0,0,2.5,1m0-1A2.5,2.5,0,1,1,0,2.5,2.5,2.5,0,0,1,2.5,0Z" transform="translate(0.5 12.5)" fill="#81c1dd"/>
      <path id="楕円形_10-4" data-name="楕円形 10" d="M2.5,1A1.5,1.5,0,1,0,4,2.5,1.5,1.5,0,0,0,2.5,1m0-1A2.5,2.5,0,1,1,0,2.5,2.5,2.5,0,0,1,2.5,0Z" transform="translate(12.5 12.5)" fill="#81c1dd"/>
    </g>
    <path id="パス_2124" data-name="パス 2124" d="M.519,0H15.455c.172,0,.519.378.519.753s-.347.747-.519.747H.519C.347,1.5,0,1.125,0,.75S.347,0,.519,0Z" transform="translate(338.322 121.618) rotate(-45)" fill="#81c1dd"/>
    <path id="パス_2166" data-name="パス 2166" d="M.519,1.5H15.455c.172,0,.519-.378.519-.753S15.627,0,15.455,0H.519C.347,0,0,.376,0,.751S.347,1.5.519,1.5Z" transform="translate(339.383 110.322) rotate(45)" fill="#81c1dd"/>
  </g>
</svg>
