<svg xmlns="http://www.w3.org/2000/svg" width="40" height="32" viewBox="0 0 40 32">
  <g id="twitterのフリーアイコン素材" transform="translate(0 0)">
    <path id="パス_1434" data-name="パス 1434" d="M185.756,167.662c.015-.022.032-.041.047-.063a16.572,16.572,0,0,1-3.713,1.117c-.309.046-.62.085-.935.109a8.149,8.149,0,0,0,3.073-3.335,8.663,8.663,0,0,0,.491-1.052c-.016.009-.032.016-.048.025.007-.021.019-.04.026-.061a16.584,16.584,0,0,1-5.209,1.96,8.251,8.251,0,0,0-5.987-2.551,8.142,8.142,0,0,0-8.2,8.078,8,8,0,0,0,.186,1.692c.007.05.011.1.019.148a23.413,23.413,0,0,1-15.355-6.757,22.415,22.415,0,0,1-1.509-1.662l-.006.012c-.01-.011-.021-.021-.03-.033a7.969,7.969,0,0,0,1.468,9.927,8.756,8.756,0,0,0,1.01.854,8.27,8.27,0,0,1-3.655-1.005c0,.034,0,.068,0,.1a8.056,8.056,0,0,0,4.786,7.318,8.421,8.421,0,0,0,1.722.618,8.333,8.333,0,0,1-2.089.269,8.234,8.234,0,0,1-1.363-.128c-.045-.013-.1-.016-.14-.03,0,.006.005.011.007.017-.016,0-.032,0-.048,0a8.179,8.179,0,0,0,6.349,5.483,8.666,8.666,0,0,0,1.278.153,16.619,16.619,0,0,1-10.152,3.433c-.532,0-1.054-.042-1.573-.091-.12-.021-.244-.029-.361-.057.023.014.047.026.069.041-.03,0-.062,0-.092-.005a23.477,23.477,0,0,0,12.574,3.629,22.564,22.564,0,0,0,18.5-8.929c.013-.017.027-.033.04-.05.375-.5.72-1.008,1.052-1.528.068-.106.144-.207.21-.315.306-.5.582-1.006.849-1.519.066-.128.142-.251.206-.38q.466-.937.844-1.9l.01-.022a22.978,22.978,0,0,0,1.631-8.34q0-.526-.024-1.045a16.552,16.552,0,0,0,3.375-3.22c.252-.3.5-.607.735-.924C185.8,167.646,185.777,167.653,185.756,167.662Z" transform="translate(-145.82 -163.811)" fill="#444"/>
  </g>
</svg>
