<svg xmlns="http://www.w3.org/2000/svg" width="34.751" height="40" viewBox="0 0 34.751 40">
  <path id="Icon_simple-tiktok" data-name="Icon simple-tiktok" d="M20.62.033C22.8,0,24.97.017,27.136,0a10.381,10.381,0,0,0,2.917,6.95A11.754,11.754,0,0,0,37.12,9.933V16.65a17.839,17.839,0,0,1-7-1.617,20.591,20.591,0,0,1-2.7-1.55c-.017,4.867.017,9.733-.033,14.583a12.73,12.73,0,0,1-2.25,6.567,12.417,12.417,0,0,1-9.85,5.35,12.153,12.153,0,0,1-6.8-1.717A12.568,12.568,0,0,1,2.4,28.75c-.033-.833-.05-1.667-.017-2.483a12.547,12.547,0,0,1,14.55-11.133c.033,2.467-.067,4.933-.067,7.4a5.718,5.718,0,0,0-7.3,3.533,6.612,6.612,0,0,0-.233,2.683,5.672,5.672,0,0,0,5.833,4.783,5.6,5.6,0,0,0,4.617-2.683,3.845,3.845,0,0,0,.683-1.767c.167-2.983.1-5.95.117-8.933C20.6,13.433,20.57,6.733,20.62.033Z" transform="translate(-2.369)" fill="#444"/>
</svg>
