<svg xmlns="http://www.w3.org/2000/svg" width="40" height="28.125" viewBox="0 0 40 28.125">
  <path id="Icon_awesome-youtube" data-name="Icon awesome-youtube" d="M40.214,8.9a5.026,5.026,0,0,0-3.536-3.559C33.558,4.5,21.05,4.5,21.05,4.5s-12.508,0-15.628.841A5.026,5.026,0,0,0,1.886,8.9c-.836,3.14-.836,9.69-.836,9.69s0,6.551.836,9.69a4.951,4.951,0,0,0,3.536,3.5c3.119.841,15.628.841,15.628.841s12.508,0,15.628-.841a4.951,4.951,0,0,0,3.536-3.5c.836-3.14.836-9.69.836-9.69s0-6.551-.836-9.69ZM16.959,24.538V12.643l10.455,5.948L16.959,24.538Z" transform="translate(-1.05 -4.5)" fill="#444"/>
</svg>
