<svg xmlns="http://www.w3.org/2000/svg" width="160" height="70" viewBox="0 0 160 70">
  <g id="グループ_603" data-name="グループ 603" transform="translate(-484.999 -2450)">
    <path id="パス_2127" data-name="パス 2127" d="M1.481,1.4C15.84-11.36,69.944-25.046,112.775-15.746s59.643,53.977,16.812,63.277-42.223-.706-74.249-12.239S-12.878,14.159,1.481,1.4Z" transform="translate(486.756 2468.806)" fill="#fff"/>
    <path id="パス_2128" data-name="パス 2128" d="M97.609-9.464A195.71,195.71,0,0,0,63.615-6.591,128.86,128.86,0,0,0,48.229-2.9a78.454,78.454,0,0,0-13.05,5.267A20.163,20.163,0,0,0,28.3,7.8a10.289,10.289,0,0,0-2.14,5.789c-.13,2.857.905,6.055,3.076,9.5a47.866,47.866,0,0,0,7.545,8.894A87.506,87.506,0,0,0,48.07,40.992l.035.023.033.025A55.049,55.049,0,0,0,58.35,46.8a67.672,67.672,0,0,0,11.609,3.948,63.807,63.807,0,0,0,14.922,1.791c.975,0,1.962-.023,2.935-.069,11.708-.555,15.089-2.187,20.691-4.891,5.7-2.753,13.515-6.524,34.005-11.229,8.392-1.927,14.8-4.537,19.06-7.757,3.708-2.806,5.672-5.99,5.836-9.464a12.2,12.2,0,0,0-1.586-6.329,23.849,23.849,0,0,0-5.09-6.282A42.8,42.8,0,0,0,152.7.865,60.517,60.517,0,0,0,142.421-3.6a110.5,110.5,0,0,0-20.276-4.351A191.514,191.514,0,0,0,97.609-9.464m0-1c17.156,0,33.574,2.08,45.127,5.912,27.005,8.96,40.8,32.5,0,41.872s-31.07,15.017-54.872,16.145A66.056,66.056,0,0,1,47.527,41.832S7.305,15.856,34.715,1.482C50.4-6.742,74.662-10.464,97.609-10.464Z" transform="translate(476.58 2462.368)" fill="#81c1dd"/>
    <text id="More" transform="translate(573.367 2490.404)" fill="#81c1dd" font-size="20" font-family="Marcellus-Regular, Marcellus"><tspan x="-25.532" y="0">More</tspan></text>
  </g>
</svg>
